<mxfile host="app.diagrams.net" modified="2022-07-03T05:27:25.009Z" agent="5.0 (Windows)" etag="IvUd8B83o2NlBWIpLguC" version="20.0.3" type="github">
  <diagram id="6qBIIyij7JlT-GvtMwbE" name="第 1 页">
    <mxGraphModel dx="1253" dy="731" grid="1" gridSize="10" guides="1" tooltips="1" connect="1" arrows="1" fold="1" page="1" pageScale="1" pageWidth="827" pageHeight="1169" background="none" math="0" shadow="1">
      <root>
        <mxCell id="0" />
        <mxCell id="1" parent="0" />
        <mxCell id="UFzSyCjpEssRRRNBBcpD-1" value="&lt;font style=&quot;font-size: 18px;&quot;&gt;大任务&lt;/font&gt;" style="rounded=1;whiteSpace=wrap;html=1;fillColor=#dae8fc;strokeColor=#6c8ebf;" vertex="1" parent="1">
          <mxGeometry x="330" y="80" width="120" height="60" as="geometry" />
        </mxCell>
        <mxCell id="UFzSyCjpEssRRRNBBcpD-5" value="&lt;font style=&quot;font-size: 18px;&quot;&gt;子任务&lt;/font&gt;" style="whiteSpace=wrap;html=1;fillColor=#d5e8d4;strokeColor=#82b366;rounded=1;" vertex="1" parent="1">
          <mxGeometry x="180" y="260" width="120" height="50" as="geometry" />
        </mxCell>
        <mxCell id="UFzSyCjpEssRRRNBBcpD-7" value="&lt;font style=&quot;font-size: 18px;&quot;&gt;子任务&lt;/font&gt;" style="whiteSpace=wrap;html=1;fillColor=#d5e8d4;strokeColor=#82b366;rounded=1;" vertex="1" parent="1">
          <mxGeometry x="480" y="260" width="120" height="50" as="geometry" />
        </mxCell>
        <mxCell id="UFzSyCjpEssRRRNBBcpD-9" value="" style="endArrow=none;html=1;rounded=1;fontSize=18;entryX=0.5;entryY=1;entryDx=0;entryDy=0;" edge="1" parent="1" target="UFzSyCjpEssRRRNBBcpD-1">
          <mxGeometry width="50" height="50" relative="1" as="geometry">
            <mxPoint x="390" y="200" as="sourcePoint" />
            <mxPoint x="410" y="180" as="targetPoint" />
          </mxGeometry>
        </mxCell>
        <mxCell id="UFzSyCjpEssRRRNBBcpD-13" value="Fork" style="edgeLabel;html=1;align=center;verticalAlign=middle;resizable=0;points=[];fontSize=18;" vertex="1" connectable="0" parent="UFzSyCjpEssRRRNBBcpD-9">
          <mxGeometry x="0.3333" relative="1" as="geometry">
            <mxPoint y="10" as="offset" />
          </mxGeometry>
        </mxCell>
        <mxCell id="UFzSyCjpEssRRRNBBcpD-11" value="" style="endArrow=classic;html=1;rounded=1;fontSize=18;entryX=0.5;entryY=0;entryDx=0;entryDy=0;" edge="1" parent="1" target="UFzSyCjpEssRRRNBBcpD-5">
          <mxGeometry width="50" height="50" relative="1" as="geometry">
            <mxPoint x="390" y="200" as="sourcePoint" />
            <mxPoint x="260" y="170" as="targetPoint" />
            <Array as="points">
              <mxPoint x="240" y="200" />
            </Array>
          </mxGeometry>
        </mxCell>
        <mxCell id="UFzSyCjpEssRRRNBBcpD-12" value="" style="endArrow=classic;html=1;rounded=1;fontSize=18;entryX=0.5;entryY=0;entryDx=0;entryDy=0;" edge="1" parent="1" target="UFzSyCjpEssRRRNBBcpD-7">
          <mxGeometry width="50" height="50" relative="1" as="geometry">
            <mxPoint x="390" y="200" as="sourcePoint" />
            <mxPoint x="420" y="240" as="targetPoint" />
            <Array as="points">
              <mxPoint x="540" y="200" />
            </Array>
          </mxGeometry>
        </mxCell>
        <mxCell id="UFzSyCjpEssRRRNBBcpD-14" value="" style="endArrow=none;html=1;rounded=1;fontSize=18;" edge="1" parent="1" target="UFzSyCjpEssRRRNBBcpD-5">
          <mxGeometry width="50" height="50" relative="1" as="geometry">
            <mxPoint x="240" y="390" as="sourcePoint" />
            <mxPoint x="280" y="330" as="targetPoint" />
          </mxGeometry>
        </mxCell>
        <mxCell id="UFzSyCjpEssRRRNBBcpD-15" value="Fork" style="edgeLabel;html=1;align=center;verticalAlign=middle;resizable=0;points=[];fontSize=18;" vertex="1" connectable="0" parent="UFzSyCjpEssRRRNBBcpD-14">
          <mxGeometry x="0.3956" y="-2" relative="1" as="geometry">
            <mxPoint x="-2" y="12" as="offset" />
          </mxGeometry>
        </mxCell>
        <mxCell id="UFzSyCjpEssRRRNBBcpD-16" value="" style="endArrow=classic;html=1;rounded=1;fontSize=18;entryX=0.5;entryY=0;entryDx=0;entryDy=0;" edge="1" parent="1" target="UFzSyCjpEssRRRNBBcpD-28">
          <mxGeometry width="50" height="50" relative="1" as="geometry">
            <mxPoint x="240" y="390" as="sourcePoint" />
            <mxPoint x="140" y="390" as="targetPoint" />
            <Array as="points">
              <mxPoint x="160" y="390" />
            </Array>
          </mxGeometry>
        </mxCell>
        <mxCell id="UFzSyCjpEssRRRNBBcpD-17" value="" style="endArrow=classic;html=1;rounded=1;fontSize=18;entryX=0.5;entryY=0;entryDx=0;entryDy=0;" edge="1" parent="1" target="UFzSyCjpEssRRRNBBcpD-27">
          <mxGeometry width="50" height="50" relative="1" as="geometry">
            <mxPoint x="240" y="390" as="sourcePoint" />
            <mxPoint x="320" y="390" as="targetPoint" />
            <Array as="points">
              <mxPoint x="320" y="390" />
            </Array>
          </mxGeometry>
        </mxCell>
        <mxCell id="UFzSyCjpEssRRRNBBcpD-19" value="" style="endArrow=classic;html=1;rounded=1;fontSize=18;entryX=0.5;entryY=0;entryDx=0;entryDy=0;" edge="1" parent="1" target="UFzSyCjpEssRRRNBBcpD-25">
          <mxGeometry width="50" height="50" relative="1" as="geometry">
            <mxPoint x="540" y="390" as="sourcePoint" />
            <mxPoint x="440" y="400" as="targetPoint" />
            <Array as="points">
              <mxPoint x="464" y="390" />
            </Array>
          </mxGeometry>
        </mxCell>
        <mxCell id="UFzSyCjpEssRRRNBBcpD-20" value="" style="endArrow=classic;html=1;rounded=1;fontSize=18;entryX=0.5;entryY=0;entryDx=0;entryDy=0;" edge="1" parent="1" target="UFzSyCjpEssRRRNBBcpD-26">
          <mxGeometry width="50" height="50" relative="1" as="geometry">
            <mxPoint x="540" y="390" as="sourcePoint" />
            <mxPoint x="630" y="420" as="targetPoint" />
            <Array as="points">
              <mxPoint x="620" y="390" />
            </Array>
          </mxGeometry>
        </mxCell>
        <mxCell id="UFzSyCjpEssRRRNBBcpD-21" value="" style="endArrow=none;html=1;rounded=1;fontSize=18;entryX=0.5;entryY=1;entryDx=0;entryDy=0;" edge="1" parent="1" target="UFzSyCjpEssRRRNBBcpD-7">
          <mxGeometry width="50" height="50" relative="1" as="geometry">
            <mxPoint x="540" y="390" as="sourcePoint" />
            <mxPoint x="550" y="320" as="targetPoint" />
          </mxGeometry>
        </mxCell>
        <mxCell id="UFzSyCjpEssRRRNBBcpD-22" value="&lt;div&gt;Fork&lt;/div&gt;" style="edgeLabel;html=1;align=center;verticalAlign=middle;resizable=0;points=[];fontSize=18;" vertex="1" connectable="0" parent="UFzSyCjpEssRRRNBBcpD-21">
          <mxGeometry x="0.2857" y="-1" relative="1" as="geometry">
            <mxPoint x="-1" y="8" as="offset" />
          </mxGeometry>
        </mxCell>
        <mxCell id="UFzSyCjpEssRRRNBBcpD-25" value="子任务" style="rounded=1;whiteSpace=wrap;html=1;fontSize=18;" vertex="1" parent="1">
          <mxGeometry x="414" y="430" width="100" height="40" as="geometry" />
        </mxCell>
        <mxCell id="UFzSyCjpEssRRRNBBcpD-26" value="子任务" style="rounded=1;whiteSpace=wrap;html=1;fontSize=18;" vertex="1" parent="1">
          <mxGeometry x="570" y="430" width="100" height="40" as="geometry" />
        </mxCell>
        <mxCell id="UFzSyCjpEssRRRNBBcpD-27" value="子任务" style="rounded=1;whiteSpace=wrap;html=1;fontSize=18;" vertex="1" parent="1">
          <mxGeometry x="270" y="430" width="100" height="40" as="geometry" />
        </mxCell>
        <mxCell id="UFzSyCjpEssRRRNBBcpD-28" value="子任务" style="rounded=1;whiteSpace=wrap;html=1;fontSize=18;" vertex="1" parent="1">
          <mxGeometry x="110" y="430" width="100" height="40" as="geometry" />
        </mxCell>
        <mxCell id="UFzSyCjpEssRRRNBBcpD-31" value="" style="endArrow=none;html=1;rounded=1;fontSize=18;entryX=0.5;entryY=1;entryDx=0;entryDy=0;" edge="1" parent="1" target="UFzSyCjpEssRRRNBBcpD-28">
          <mxGeometry width="50" height="50" relative="1" as="geometry">
            <mxPoint x="240" y="520" as="sourcePoint" />
            <mxPoint x="150" y="540" as="targetPoint" />
            <Array as="points">
              <mxPoint x="160" y="520" />
            </Array>
          </mxGeometry>
        </mxCell>
        <mxCell id="UFzSyCjpEssRRRNBBcpD-32" value="" style="endArrow=none;html=1;rounded=1;fontSize=18;entryX=0.5;entryY=1;entryDx=0;entryDy=0;" edge="1" parent="1" target="UFzSyCjpEssRRRNBBcpD-27">
          <mxGeometry width="50" height="50" relative="1" as="geometry">
            <mxPoint x="240" y="520" as="sourcePoint" />
            <mxPoint x="320" y="520" as="targetPoint" />
            <Array as="points">
              <mxPoint x="320" y="520" />
            </Array>
          </mxGeometry>
        </mxCell>
        <mxCell id="UFzSyCjpEssRRRNBBcpD-33" value="" style="endArrow=classic;html=1;rounded=1;fontSize=18;" edge="1" parent="1">
          <mxGeometry width="50" height="50" relative="1" as="geometry">
            <mxPoint x="240" y="520" as="sourcePoint" />
            <mxPoint x="240" y="580" as="targetPoint" />
          </mxGeometry>
        </mxCell>
        <mxCell id="UFzSyCjpEssRRRNBBcpD-34" value="Join" style="edgeLabel;html=1;align=center;verticalAlign=middle;resizable=0;points=[];fontSize=18;" vertex="1" connectable="0" parent="UFzSyCjpEssRRRNBBcpD-33">
          <mxGeometry x="0.36" y="1" relative="1" as="geometry">
            <mxPoint x="-1" y="-14" as="offset" />
          </mxGeometry>
        </mxCell>
        <mxCell id="UFzSyCjpEssRRRNBBcpD-35" value="子任务结果" style="rounded=1;whiteSpace=wrap;html=1;fontSize=18;fillColor=#d5e8d4;strokeColor=#82b366;" vertex="1" parent="1">
          <mxGeometry x="180" y="585" width="120" height="50" as="geometry" />
        </mxCell>
        <mxCell id="UFzSyCjpEssRRRNBBcpD-36" value="" style="endArrow=none;html=1;rounded=1;fontSize=18;entryX=0.5;entryY=1;entryDx=0;entryDy=0;" edge="1" parent="1" target="UFzSyCjpEssRRRNBBcpD-25">
          <mxGeometry width="50" height="50" relative="1" as="geometry">
            <mxPoint x="540" y="520" as="sourcePoint" />
            <mxPoint x="460" y="470" as="targetPoint" />
            <Array as="points">
              <mxPoint x="464" y="520" />
            </Array>
          </mxGeometry>
        </mxCell>
        <mxCell id="UFzSyCjpEssRRRNBBcpD-37" value="" style="endArrow=none;html=1;rounded=1;fontSize=18;entryX=0.5;entryY=1;entryDx=0;entryDy=0;" edge="1" parent="1">
          <mxGeometry width="50" height="50" relative="1" as="geometry">
            <mxPoint x="540" y="520" as="sourcePoint" />
            <mxPoint x="620" y="470" as="targetPoint" />
            <Array as="points">
              <mxPoint x="620" y="520" />
            </Array>
          </mxGeometry>
        </mxCell>
        <mxCell id="UFzSyCjpEssRRRNBBcpD-38" value="" style="endArrow=classic;html=1;rounded=1;fontSize=18;" edge="1" parent="1">
          <mxGeometry width="50" height="50" relative="1" as="geometry">
            <mxPoint x="540" y="520" as="sourcePoint" />
            <mxPoint x="540" y="580" as="targetPoint" />
          </mxGeometry>
        </mxCell>
        <mxCell id="UFzSyCjpEssRRRNBBcpD-39" value="Join" style="edgeLabel;html=1;align=center;verticalAlign=middle;resizable=0;points=[];fontSize=18;" vertex="1" connectable="0" parent="UFzSyCjpEssRRRNBBcpD-38">
          <mxGeometry x="0.36" y="1" relative="1" as="geometry">
            <mxPoint x="-1" y="-14" as="offset" />
          </mxGeometry>
        </mxCell>
        <mxCell id="UFzSyCjpEssRRRNBBcpD-40" value="子任务结果" style="rounded=1;whiteSpace=wrap;html=1;fontSize=18;fillColor=#d5e8d4;strokeColor=#82b366;" vertex="1" parent="1">
          <mxGeometry x="480" y="585" width="120" height="50" as="geometry" />
        </mxCell>
        <mxCell id="UFzSyCjpEssRRRNBBcpD-41" value="" style="endArrow=none;html=1;rounded=1;fontSize=18;entryX=0.5;entryY=1;entryDx=0;entryDy=0;" edge="1" parent="1" target="UFzSyCjpEssRRRNBBcpD-35">
          <mxGeometry width="50" height="50" relative="1" as="geometry">
            <mxPoint x="400" y="690" as="sourcePoint" />
            <mxPoint x="220" y="710" as="targetPoint" />
            <Array as="points">
              <mxPoint x="240" y="690" />
            </Array>
          </mxGeometry>
        </mxCell>
        <mxCell id="UFzSyCjpEssRRRNBBcpD-42" value="" style="endArrow=none;html=1;rounded=1;fontSize=18;entryX=0.5;entryY=1;entryDx=0;entryDy=0;" edge="1" parent="1" target="UFzSyCjpEssRRRNBBcpD-40">
          <mxGeometry width="50" height="50" relative="1" as="geometry">
            <mxPoint x="400" y="690" as="sourcePoint" />
            <mxPoint x="510" y="690" as="targetPoint" />
            <Array as="points">
              <mxPoint x="540" y="690" />
            </Array>
          </mxGeometry>
        </mxCell>
        <mxCell id="UFzSyCjpEssRRRNBBcpD-43" value="" style="endArrow=classic;html=1;rounded=1;fontSize=18;" edge="1" parent="1">
          <mxGeometry width="50" height="50" relative="1" as="geometry">
            <mxPoint x="390" y="690" as="sourcePoint" />
            <mxPoint x="390" y="750" as="targetPoint" />
          </mxGeometry>
        </mxCell>
        <mxCell id="UFzSyCjpEssRRRNBBcpD-44" value="&lt;div&gt;Join&lt;/div&gt;" style="edgeLabel;html=1;align=center;verticalAlign=middle;resizable=0;points=[];fontSize=18;" vertex="1" connectable="0" parent="UFzSyCjpEssRRRNBBcpD-43">
          <mxGeometry x="0.4" y="-1" relative="1" as="geometry">
            <mxPoint x="1" y="-12" as="offset" />
          </mxGeometry>
        </mxCell>
        <mxCell id="UFzSyCjpEssRRRNBBcpD-45" value="大任务结果" style="rounded=1;whiteSpace=wrap;html=1;fontSize=18;fillColor=#dae8fc;strokeColor=#6c8ebf;" vertex="1" parent="1">
          <mxGeometry x="330" y="750" width="120" height="60" as="geometry" />
        </mxCell>
      </root>
    </mxGraphModel>
  </diagram>
</mxfile>
